<mxfile host="app.diagrams.net" modified="2023-05-17T19:13:48.008Z" agent="Mozilla/5.0 (Windows NT 10.0; Win64; x64) AppleWebKit/537.36 (KHTML, like Gecko) Chrome/113.0.0.0 Safari/537.36" version="21.3.2" etag="xsTD08b6sb_1NrVme0c2" type="github">
  <diagram name="Page-1" id="A_o8xQMq1q_4fxk-Brah">
    <mxGraphModel>
      <root>
        <mxCell id="0" />
        <mxCell id="1" parent="0" />
      </root>
    </mxGraphModel>
  </diagram>
</mxfile>
